<mxfile modified="2024-05-15T14:11:57.974Z" host="app.diagrams.net" agent="Mozilla/5.0 (Windows NT 10.0; Win64; x64) AppleWebKit/537.36 (KHTML, like Gecko) Chrome/124.0.0.0 Safari/537.36 Edg/124.0.0.0" etag="0jgHOnwdz5ULjyeegkH0" version="24.4.0" type="github">
  <diagram id="l2aKFoh6-Bn0gOPZ2l0T" name="Page-1">
    <mxGraphModel dx="1752" dy="323" grid="1" gridSize="10" guides="1" tooltips="1" connect="1" arrows="1" fold="1" page="1" pageScale="1" pageWidth="1169" pageHeight="827" math="0" shadow="0">
      <root>
        <mxCell id="0" />
        <mxCell id="1" parent="0" />
        <mxCell id="mpq5AgpwV83IM184FDqD-17" value="" style="shape=image;verticalLabelPosition=bottom;verticalAlign=top;imageAspect=0;image=https://jgraph.github.io/drawio-libs/libs/arista/DCS-7304.svg;html=1;verticalLabelPosition=bottom;labelBackgroundColor=#ffffff;verticalAlign=top;outlineConnect=0;container=1;collapsible=0;childLayout=rack;rackUnitSize=16.7;allowGaps=1;marginLeft=8;marginRight=8;marginTop=27;marginBottom=22;textColor=#666666;aspect=fixed;" parent="1" vertex="1">
          <mxGeometry x="400" y="240" width="202.6" height="150" as="geometry" />
        </mxCell>
        <mxCell id="IyLhY9QwdGPl3OyIGw4P-18" value="" style="shape=mxgraph.rack.cisco.cisco_1941_series_integrated_services_router;html=1;labelPosition=right;align=left;spacingLeft=15;dashed=0;shadow=0;fillColor=#ffffff;" vertex="1" parent="mpq5AgpwV83IM184FDqD-17">
          <mxGeometry x="8" y="27" width="186.6" height="33.4" as="geometry" />
        </mxCell>
        <mxCell id="IyLhY9QwdGPl3OyIGw4P-20" value="" style="html=1;verticalLabelPosition=bottom;verticalAlign=top;outlineConnect=0;shadow=0;dashed=0;shape=mxgraph.rack.hpe_aruba.switches.j9773a_2530_24g_poeplus_switch;" vertex="1" parent="mpq5AgpwV83IM184FDqD-17">
          <mxGeometry x="8" y="60.4" width="186.6" height="16.7" as="geometry" />
        </mxCell>
        <mxCell id="IyLhY9QwdGPl3OyIGw4P-25" style="edgeStyle=orthogonalEdgeStyle;rounded=0;orthogonalLoop=1;jettySize=auto;html=1;" edge="1" parent="mpq5AgpwV83IM184FDqD-17">
          <mxGeometry relative="1" as="geometry">
            <mxPoint x="358.70000000000005" y="4.988505747126453" as="sourcePoint" />
            <mxPoint x="79.998850574713" y="77.10000000000002" as="targetPoint" />
          </mxGeometry>
        </mxCell>
        <mxCell id="IyLhY9QwdGPl3OyIGw4P-30" style="edgeStyle=orthogonalEdgeStyle;rounded=0;orthogonalLoop=1;jettySize=auto;html=1;" edge="1" parent="mpq5AgpwV83IM184FDqD-17" source="IyLhY9QwdGPl3OyIGw4P-8" target="IyLhY9QwdGPl3OyIGw4P-23">
          <mxGeometry relative="1" as="geometry">
            <Array as="points">
              <mxPoint x="40" y="55" />
            </Array>
          </mxGeometry>
        </mxCell>
        <mxCell id="IyLhY9QwdGPl3OyIGw4P-33" style="edgeStyle=orthogonalEdgeStyle;rounded=0;orthogonalLoop=1;jettySize=auto;html=1;" edge="1" parent="mpq5AgpwV83IM184FDqD-17" source="IyLhY9QwdGPl3OyIGw4P-7">
          <mxGeometry relative="1" as="geometry">
            <mxPoint x="-190" y="-54.988505747126396" as="sourcePoint" />
            <mxPoint x="161.29885057471301" y="77.10000000000002" as="targetPoint" />
          </mxGeometry>
        </mxCell>
        <mxCell id="IyLhY9QwdGPl3OyIGw4P-31" style="edgeStyle=orthogonalEdgeStyle;rounded=0;orthogonalLoop=1;jettySize=auto;html=1;" edge="1" parent="mpq5AgpwV83IM184FDqD-17">
          <mxGeometry relative="1" as="geometry">
            <mxPoint x="-170" y="44.98850574712645" as="sourcePoint" />
            <mxPoint x="21.298850574713015" y="77.10000000000002" as="targetPoint" />
          </mxGeometry>
        </mxCell>
        <mxCell id="IyLhY9QwdGPl3OyIGw4P-23" value="" style="strokeColor=#666666;html=1;labelPosition=right;align=left;spacingLeft=15;shadow=0;dashed=0;outlineConnect=0;shape=mxgraph.rack.general.cat5e_enhanced_patch_panel_48_ports;" vertex="1" parent="mpq5AgpwV83IM184FDqD-17">
          <mxGeometry x="8" y="77.1" width="186.6" height="33.4" as="geometry" />
        </mxCell>
        <mxCell id="IyLhY9QwdGPl3OyIGw4P-38" style="edgeStyle=orthogonalEdgeStyle;rounded=0;orthogonalLoop=1;jettySize=auto;html=1;exitX=0.336;exitY=0.559;exitDx=0;exitDy=0;exitPerimeter=0;" edge="1" parent="mpq5AgpwV83IM184FDqD-17" source="IyLhY9QwdGPl3OyIGw4P-37">
          <mxGeometry relative="1" as="geometry">
            <mxPoint x="470" y="143.51428571428573" as="sourcePoint" />
            <mxPoint x="160" y="110.5" as="targetPoint" />
            <Array as="points">
              <mxPoint x="403" y="143" />
              <mxPoint x="160" y="143" />
            </Array>
          </mxGeometry>
        </mxCell>
        <mxCell id="IyLhY9QwdGPl3OyIGw4P-26" style="edgeStyle=orthogonalEdgeStyle;rounded=0;orthogonalLoop=1;jettySize=auto;html=1;" edge="1" parent="mpq5AgpwV83IM184FDqD-17" source="IyLhY9QwdGPl3OyIGw4P-5">
          <mxGeometry relative="1" as="geometry">
            <mxPoint x="250" y="255" as="sourcePoint" />
            <mxPoint x="80" y="110.5" as="targetPoint" />
            <Array as="points">
              <mxPoint x="80" y="255" />
            </Array>
          </mxGeometry>
        </mxCell>
        <mxCell id="IyLhY9QwdGPl3OyIGw4P-27" style="edgeStyle=orthogonalEdgeStyle;rounded=0;orthogonalLoop=1;jettySize=auto;html=1;exitX=0.261;exitY=0.772;exitDx=0;exitDy=0;exitPerimeter=0;" edge="1" parent="mpq5AgpwV83IM184FDqD-17" source="IyLhY9QwdGPl3OyIGw4P-4">
          <mxGeometry relative="1" as="geometry">
            <mxPoint x="388.4500000000003" y="254.60000000000002" as="sourcePoint" />
            <mxPoint x="40.00149425287373" y="110.50000000000006" as="targetPoint" />
            <Array as="points">
              <mxPoint x="389" y="243" />
              <mxPoint x="389" y="245" />
              <mxPoint x="40" y="245" />
            </Array>
          </mxGeometry>
        </mxCell>
        <mxCell id="mpq5AgpwV83IM184FDqD-40" value="Arista rack equipment layout" style="text;html=1;resizable=1;points=[];autosize=0;align=left;verticalAlign=top;spacingTop=-4;fontSize=20;fontStyle=1" parent="1" vertex="1">
          <mxGeometry x="40" y="40" width="580" height="30" as="geometry" />
        </mxCell>
        <mxCell id="mpq5AgpwV83IM184FDqD-41" value="Clinica" style="text;html=1;resizable=1;points=[];autosize=0;align=left;verticalAlign=middle;spacingTop=-4;fontSize=14;fontStyle=0" parent="1" vertex="1">
          <mxGeometry x="40" y="80" width="580" height="30" as="geometry" />
        </mxCell>
        <mxCell id="IyLhY9QwdGPl3OyIGw4P-2" value="" style="sketch=0;aspect=fixed;pointerEvents=1;shadow=0;dashed=0;html=1;strokeColor=none;labelPosition=center;verticalLabelPosition=bottom;verticalAlign=top;align=center;fillColor=#00188D;shape=mxgraph.azure.laptop" vertex="1" parent="1">
          <mxGeometry x="260" y="270" width="50" height="30" as="geometry" />
        </mxCell>
        <mxCell id="IyLhY9QwdGPl3OyIGw4P-40" style="edgeStyle=orthogonalEdgeStyle;rounded=0;orthogonalLoop=1;jettySize=auto;html=1;" edge="1" parent="1" source="IyLhY9QwdGPl3OyIGw4P-3" target="IyLhY9QwdGPl3OyIGw4P-23">
          <mxGeometry relative="1" as="geometry" />
        </mxCell>
        <mxCell id="IyLhY9QwdGPl3OyIGw4P-3" value="" style="sketch=0;aspect=fixed;pointerEvents=1;shadow=0;dashed=0;html=1;strokeColor=none;labelPosition=center;verticalLabelPosition=bottom;verticalAlign=top;align=center;fillColor=#00188D;shape=mxgraph.azure.laptop" vertex="1" parent="1">
          <mxGeometry x="100" y="290" width="50" height="30" as="geometry" />
        </mxCell>
        <mxCell id="IyLhY9QwdGPl3OyIGw4P-4" value="" style="sketch=0;aspect=fixed;pointerEvents=1;shadow=0;dashed=0;html=1;strokeColor=none;labelPosition=center;verticalLabelPosition=bottom;verticalAlign=top;align=center;fillColor=#00188D;shape=mxgraph.azure.laptop" vertex="1" parent="1">
          <mxGeometry x="785" y="470" width="50" height="30" as="geometry" />
        </mxCell>
        <mxCell id="IyLhY9QwdGPl3OyIGw4P-5" value="" style="sketch=0;aspect=fixed;pointerEvents=1;shadow=0;dashed=0;html=1;strokeColor=none;labelPosition=center;verticalLabelPosition=bottom;verticalAlign=top;align=center;fillColor=#00188D;shape=mxgraph.azure.laptop" vertex="1" parent="1">
          <mxGeometry x="700" y="480" width="50" height="30" as="geometry" />
        </mxCell>
        <mxCell id="IyLhY9QwdGPl3OyIGw4P-28" style="edgeStyle=orthogonalEdgeStyle;rounded=0;orthogonalLoop=1;jettySize=auto;html=1;" edge="1" parent="1" source="IyLhY9QwdGPl3OyIGw4P-6" target="IyLhY9QwdGPl3OyIGw4P-23">
          <mxGeometry relative="1" as="geometry">
            <Array as="points">
              <mxPoint x="580" y="205" />
            </Array>
          </mxGeometry>
        </mxCell>
        <mxCell id="IyLhY9QwdGPl3OyIGw4P-6" value="" style="sketch=0;aspect=fixed;pointerEvents=1;shadow=0;dashed=0;html=1;strokeColor=none;labelPosition=center;verticalLabelPosition=bottom;verticalAlign=top;align=center;fillColor=#00188D;shape=mxgraph.azure.laptop" vertex="1" parent="1">
          <mxGeometry x="260" y="190" width="50" height="30" as="geometry" />
        </mxCell>
        <mxCell id="IyLhY9QwdGPl3OyIGw4P-7" value="" style="sketch=0;aspect=fixed;pointerEvents=1;shadow=0;dashed=0;html=1;strokeColor=none;labelPosition=center;verticalLabelPosition=bottom;verticalAlign=top;align=center;fillColor=#00188D;shape=mxgraph.azure.laptop" vertex="1" parent="1">
          <mxGeometry x="100" y="170" width="50" height="30" as="geometry" />
        </mxCell>
        <mxCell id="IyLhY9QwdGPl3OyIGw4P-8" value="" style="sketch=0;aspect=fixed;pointerEvents=1;shadow=0;dashed=0;html=1;strokeColor=none;labelPosition=center;verticalLabelPosition=bottom;verticalAlign=top;align=center;fillColor=#00188D;shape=mxgraph.azure.laptop" vertex="1" parent="1">
          <mxGeometry x="180" y="280" width="50" height="30" as="geometry" />
        </mxCell>
        <mxCell id="IyLhY9QwdGPl3OyIGw4P-29" style="edgeStyle=orthogonalEdgeStyle;rounded=0;orthogonalLoop=1;jettySize=auto;html=1;" edge="1" parent="1" source="IyLhY9QwdGPl3OyIGw4P-10" target="IyLhY9QwdGPl3OyIGw4P-23">
          <mxGeometry relative="1" as="geometry">
            <Array as="points">
              <mxPoint x="460" y="195" />
            </Array>
          </mxGeometry>
        </mxCell>
        <mxCell id="IyLhY9QwdGPl3OyIGw4P-34" style="edgeStyle=orthogonalEdgeStyle;rounded=0;orthogonalLoop=1;jettySize=auto;html=1;" edge="1" parent="1" source="IyLhY9QwdGPl3OyIGw4P-10" target="IyLhY9QwdGPl3OyIGw4P-23">
          <mxGeometry relative="1" as="geometry">
            <Array as="points">
              <mxPoint x="540" y="195" />
            </Array>
          </mxGeometry>
        </mxCell>
        <mxCell id="IyLhY9QwdGPl3OyIGw4P-10" value="" style="sketch=0;aspect=fixed;pointerEvents=1;shadow=0;dashed=0;html=1;strokeColor=none;labelPosition=center;verticalLabelPosition=bottom;verticalAlign=top;align=center;fillColor=#00188D;shape=mxgraph.azure.laptop" vertex="1" parent="1">
          <mxGeometry x="180" y="180" width="50" height="30" as="geometry" />
        </mxCell>
        <mxCell id="IyLhY9QwdGPl3OyIGw4P-35" style="edgeStyle=orthogonalEdgeStyle;rounded=0;orthogonalLoop=1;jettySize=auto;html=1;" edge="1" parent="1" source="IyLhY9QwdGPl3OyIGw4P-11" target="IyLhY9QwdGPl3OyIGw4P-23">
          <mxGeometry relative="1" as="geometry">
            <Array as="points">
              <mxPoint x="520" y="435" />
            </Array>
          </mxGeometry>
        </mxCell>
        <mxCell id="IyLhY9QwdGPl3OyIGw4P-11" value="" style="sketch=0;aspect=fixed;pointerEvents=1;shadow=0;dashed=0;html=1;strokeColor=none;labelPosition=center;verticalLabelPosition=bottom;verticalAlign=top;align=center;fillColor=#00188D;shape=mxgraph.azure.laptop" vertex="1" parent="1">
          <mxGeometry x="180" y="420" width="50" height="30" as="geometry" />
        </mxCell>
        <mxCell id="IyLhY9QwdGPl3OyIGw4P-24" style="edgeStyle=orthogonalEdgeStyle;rounded=0;orthogonalLoop=1;jettySize=auto;html=1;" edge="1" parent="1" source="IyLhY9QwdGPl3OyIGw4P-12" target="IyLhY9QwdGPl3OyIGw4P-23">
          <mxGeometry relative="1" as="geometry">
            <Array as="points">
              <mxPoint x="520" y="235" />
            </Array>
          </mxGeometry>
        </mxCell>
        <mxCell id="IyLhY9QwdGPl3OyIGw4P-12" value="" style="sketch=0;aspect=fixed;pointerEvents=1;shadow=0;dashed=0;html=1;strokeColor=none;labelPosition=center;verticalLabelPosition=bottom;verticalAlign=top;align=center;fillColor=#00188D;shape=mxgraph.azure.laptop" vertex="1" parent="1">
          <mxGeometry x="700" y="220" width="50" height="30" as="geometry" />
        </mxCell>
        <mxCell id="IyLhY9QwdGPl3OyIGw4P-14" value="" style="sketch=0;aspect=fixed;pointerEvents=1;shadow=0;dashed=0;html=1;strokeColor=none;labelPosition=center;verticalLabelPosition=bottom;verticalAlign=top;align=center;fillColor=#00188D;shape=mxgraph.azure.laptop" vertex="1" parent="1">
          <mxGeometry x="780" y="230" width="50" height="30" as="geometry" />
        </mxCell>
        <mxCell id="IyLhY9QwdGPl3OyIGw4P-17" style="edgeStyle=orthogonalEdgeStyle;rounded=0;orthogonalLoop=1;jettySize=auto;html=1;exitX=0.5;exitY=1;exitDx=0;exitDy=0;exitPerimeter=0;" edge="1" parent="1">
          <mxGeometry relative="1" as="geometry">
            <mxPoint x="-975.0000000000002" y="176.25" as="sourcePoint" />
            <mxPoint x="-975.0000000000002" y="176.25" as="targetPoint" />
          </mxGeometry>
        </mxCell>
        <mxCell id="IyLhY9QwdGPl3OyIGw4P-36" style="edgeStyle=orthogonalEdgeStyle;rounded=0;orthogonalLoop=1;jettySize=auto;html=1;exitX=0.5;exitY=1;exitDx=0;exitDy=0;exitPerimeter=0;" edge="1" parent="1" source="IyLhY9QwdGPl3OyIGw4P-11" target="IyLhY9QwdGPl3OyIGw4P-11">
          <mxGeometry relative="1" as="geometry" />
        </mxCell>
        <mxCell id="IyLhY9QwdGPl3OyIGw4P-37" value="" style="verticalLabelPosition=bottom;html=1;verticalAlign=top;align=center;shape=mxgraph.floorplan.printer;" vertex="1" parent="1">
          <mxGeometry x="790" y="360" width="40" height="47" as="geometry" />
        </mxCell>
      </root>
    </mxGraphModel>
  </diagram>
</mxfile>
